<?xml version='1.0' encoding='UTF-8'?>
<mxfile host="Electron" version="25.0.2">
  <diagram name="Hub and Spoke Topology">
    <mxGraphModel dx="371" dy="1462" grid="0" gridSize="10" guides="1" tooltips="1" connect="1" arrows="1" fold="1" page="0" pageScale="1" pageWidth="827" pageHeight="1169" math="0" shadow="0" background="#ffffff">
      <root>
        <mxCell id="0"/>
        <mxCell id="1" parent="0"/>
        <mxCell id="hub" style="shape=rectangle;rounded=1;whiteSpace=wrap;html=1;strokeColor=#0078D4;fontColor=#004578;fillColor=#E6F1FB;verticalAlign=top" vertex="1" parent="1" value="Subscription: HUB&#10;HUB-vnet&#10;10.0.0.0/23">
          <mxGeometry x="200" y="400" width="400" height="60" as="geometry"/>
        </mxCell>
        <mxCell id="hub_image" style="shape=image;html=1;image=img/lib/azure2/networking/Virtual_Networks.svg;" vertex="1" parent="1">
          <mxGeometry x="580" y="450" width="20" height="20" as="geometry"/>
        </mxCell>
        <mxCell id="hub_firewall_image" style="shape=image;html=1;image=img/lib/azure2/networking/Firewalls.svg;" vertex="1" parent="1">
          <mxGeometry x="560" y="450" width="20" height="20" as="geometry"/>
        </mxCell>
        <mxCell id="hub_subnet_0" style="shape=rectangle;rounded=1;whiteSpace=wrap;html=1;strokeColor=#C8C6C4;fontColor=#323130;fillColor=#FAF9F8" vertex="1" parent="hub" value="AzureFirewallSubnet 10.0.0.0/26">
          <mxGeometry x="25" y="35" width="350" height="20" as="geometry"/>
        </mxCell>
        <mxCell id="right_spoke0" style="shape=rectangle;rounded=1;whiteSpace=wrap;html=1;strokeColor=#CC6600;fontColor=#CC6600;fillColor=#f2f7fc;verticalAlign=top" vertex="1" parent="1" value="Subscription: IAM LZ&#10;iam-vnet 10.0.8.0/23">
          <mxGeometry x="700" y="200" width="400" height="100" as="geometry"/>
        </mxCell>
        <mxCell id="right_spoke0_image" style="shape=image;html=1;image=img/lib/azure2/networking/Virtual_Networks.svg;" vertex="1" parent="1">
          <mxGeometry x="1080" y="290" width="20" height="20" as="geometry"/>
        </mxCell>
        <mxCell id="right_spoke0_subnet_0" style="shape=rectangle;rounded=1;whiteSpace=wrap;html=1;strokeColor=#C8C6C4;fontColor=#323130;fillColor=#FAF9F8" vertex="1" parent="right_spoke0" value="dns-subnet 10.0.8.0/24">
          <mxGeometry x="25" y="40" width="350" height="20" as="geometry"/>
        </mxCell>
        <mxCell id="right_spoke0_subnet_1" style="shape=rectangle;rounded=1;whiteSpace=wrap;html=1;strokeColor=#C8C6C4;fontColor=#323130;fillColor=#FAF9F8" vertex="1" parent="right_spoke0" value="ad-subnet 10.0.9.0/24">
          <mxGeometry x="25" y="70" width="350" height="20" as="geometry"/>
        </mxCell>
        <mxCell id="right_spoke0_subnet_1_nsg" style="shape=image;html=1;image=img/lib/azure2/networking/Network_Security_Groups.svg;" vertex="1" parent="right_spoke0">
          <mxGeometry x="25" y="70" width="20" height="20" as="geometry"/>
        </mxCell>
        <mxCell id="edge_right_0_iam-vnet" edge="1" source="hub" target="right_spoke0" style="edgeStyle=orthogonalEdgeStyle;rounded=1;strokeColor=#0078D4;strokeWidth=2;endArrow=block;startArrow=block;" parent="1">
          <mxGeometry relative="1" as="geometry">
            <Array as="points">
              <mxPoint x="600" y="225"/>
              <mxPoint x="700" y="225"/>
            </Array>
          </mxGeometry>
        </mxCell>
        <mxCell id="right_spoke1" style="shape=rectangle;rounded=1;whiteSpace=wrap;html=1;strokeColor=#CC6600;fontColor=#CC6600;fillColor=#f2f7fc;verticalAlign=top" vertex="1" parent="1" value="Subscription: Shared Services LZ&#10;shared-services-vnet 10.0.6.0/23">
          <mxGeometry x="700" y="310" width="400" height="100" as="geometry"/>
        </mxCell>
        <mxCell id="right_spoke1_image" style="shape=image;html=1;image=img/lib/azure2/networking/Virtual_Networks.svg;" vertex="1" parent="1">
          <mxGeometry x="1080" y="400" width="20" height="20" as="geometry"/>
        </mxCell>
        <mxCell id="right_spoke1_subnet_0" style="shape=rectangle;rounded=1;whiteSpace=wrap;html=1;strokeColor=#C8C6C4;fontColor=#323130;fillColor=#FAF9F8" vertex="1" parent="right_spoke1" value="db-subnet 10.0.7.0/24">
          <mxGeometry x="25" y="40" width="350" height="20" as="geometry"/>
        </mxCell>
        <mxCell id="right_spoke1_subnet_0_nsg" style="shape=image;html=1;image=img/lib/azure2/networking/Network_Security_Groups.svg;" vertex="1" parent="right_spoke1">
          <mxGeometry x="25" y="40" width="20" height="20" as="geometry"/>
        </mxCell>
        <mxCell id="right_spoke1_subnet_1" style="shape=rectangle;rounded=1;whiteSpace=wrap;html=1;strokeColor=#C8C6C4;fontColor=#323130;fillColor=#FAF9F8" vertex="1" parent="right_spoke1" value="div-subnet 10.0.6.0/24">
          <mxGeometry x="25" y="70" width="350" height="20" as="geometry"/>
        </mxCell>
        <mxCell id="right_spoke1_subnet_1_nsg" style="shape=image;html=1;image=img/lib/azure2/networking/Network_Security_Groups.svg;" vertex="1" parent="right_spoke1">
          <mxGeometry x="25" y="70" width="20" height="20" as="geometry"/>
        </mxCell>
        <mxCell id="right_spoke1_subnet_1_udr" style="shape=image;html=1;image=img/lib/azure2/networking/Route_Tables.svg;" vertex="1" parent="right_spoke1">
          <mxGeometry x="355" y="70" width="20" height="20" as="geometry"/>
        </mxCell>
        <mxCell id="edge_right_1_shared-services-vnet" edge="1" source="hub" target="right_spoke1" style="edgeStyle=orthogonalEdgeStyle;rounded=1;strokeColor=#0078D4;strokeWidth=2;endArrow=block;startArrow=block;" parent="1">
          <mxGeometry relative="1" as="geometry">
            <Array as="points">
              <mxPoint x="600" y="335"/>
              <mxPoint x="700" y="335"/>
            </Array>
          </mxGeometry>
        </mxCell>
        <mxCell id="right_spoke2" style="shape=rectangle;rounded=1;whiteSpace=wrap;html=1;strokeColor=#CC6600;fontColor=#CC6600;fillColor=#f2f7fc;verticalAlign=top" vertex="1" parent="1" value="Subscription: Application 1 Prod LZ&#10;app-prod-vnet 10.0.5.0/24">
          <mxGeometry x="700" y="420" width="400" height="70" as="geometry"/>
        </mxCell>
        <mxCell id="right_spoke2_image" style="shape=image;html=1;image=img/lib/azure2/networking/Virtual_Networks.svg;" vertex="1" parent="1">
          <mxGeometry x="1080" y="480" width="20" height="20" as="geometry"/>
        </mxCell>
        <mxCell id="right_spoke2_subnet_0" style="shape=rectangle;rounded=1;whiteSpace=wrap;html=1;strokeColor=#C8C6C4;fontColor=#323130;fillColor=#FAF9F8" vertex="1" parent="right_spoke2" value="app-subnet 10.0.5.0/24">
          <mxGeometry x="25" y="40" width="350" height="20" as="geometry"/>
        </mxCell>
        <mxCell id="right_spoke2_subnet_0_nsg" style="shape=image;html=1;image=img/lib/azure2/networking/Network_Security_Groups.svg;" vertex="1" parent="right_spoke2">
          <mxGeometry x="25" y="40" width="20" height="20" as="geometry"/>
        </mxCell>
        <mxCell id="right_spoke2_subnet_0_udr" style="shape=image;html=1;image=img/lib/azure2/networking/Route_Tables.svg;" vertex="1" parent="right_spoke2">
          <mxGeometry x="355" y="40" width="20" height="20" as="geometry"/>
        </mxCell>
        <mxCell id="edge_right_2_app-prod-vnet" edge="1" source="hub" target="right_spoke2" style="edgeStyle=orthogonalEdgeStyle;rounded=1;strokeColor=#0078D4;strokeWidth=2;endArrow=block;startArrow=block;" parent="1">
          <mxGeometry relative="1" as="geometry">
            <Array as="points">
              <mxPoint x="600" y="445"/>
              <mxPoint x="700" y="445"/>
            </Array>
          </mxGeometry>
        </mxCell>
        <mxCell id="right_spoke3" style="shape=rectangle;rounded=1;whiteSpace=wrap;html=1;strokeColor=#CC6600;fontColor=#CC6600;fillColor=#f2f7fc;verticalAlign=top" vertex="1" parent="1" value="Subscription: Application 1 Test LZ&#10;app-test-vnet 10.0.4.0/24">
          <mxGeometry x="700" y="500" width="400" height="70" as="geometry"/>
        </mxCell>
        <mxCell id="right_spoke3_image" style="shape=image;html=1;image=img/lib/azure2/networking/Virtual_Networks.svg;" vertex="1" parent="1">
          <mxGeometry x="1080" y="560" width="20" height="20" as="geometry"/>
        </mxCell>
        <mxCell id="right_spoke3_subnet_0" style="shape=rectangle;rounded=1;whiteSpace=wrap;html=1;strokeColor=#C8C6C4;fontColor=#323130;fillColor=#FAF9F8" vertex="1" parent="right_spoke3" value="app-subnet 10.0.4.0/24">
          <mxGeometry x="25" y="40" width="350" height="20" as="geometry"/>
        </mxCell>
        <mxCell id="edge_right_3_app-test-vnet" edge="1" source="hub" target="right_spoke3" style="edgeStyle=orthogonalEdgeStyle;rounded=1;strokeColor=#0078D4;strokeWidth=2;endArrow=block;startArrow=block;" parent="1">
          <mxGeometry relative="1" as="geometry">
            <Array as="points">
              <mxPoint x="600" y="525"/>
              <mxPoint x="700" y="525"/>
            </Array>
          </mxGeometry>
        </mxCell>
        <mxCell id="right_spoke4" style="shape=rectangle;rounded=1;whiteSpace=wrap;html=1;strokeColor=#CC6600;fontColor=#CC6600;fillColor=#f2f7fc;verticalAlign=top" vertex="1" parent="1" value="Subscription: Application 1 Dev LZ&#10;dev-app-vnet 10.0.2.0/24">
          <mxGeometry x="700" y="580" width="400" height="70" as="geometry"/>
        </mxCell>
        <mxCell id="right_spoke4_image" style="shape=image;html=1;image=img/lib/azure2/networking/Virtual_Networks.svg;" vertex="1" parent="1">
          <mxGeometry x="1080" y="640" width="20" height="20" as="geometry"/>
        </mxCell>
        <mxCell id="right_spoke4_subnet_0" style="shape=rectangle;rounded=1;whiteSpace=wrap;html=1;strokeColor=#C8C6C4;fontColor=#323130;fillColor=#FAF9F8" vertex="1" parent="right_spoke4" value="App-subnet 10.0.2.0/24">
          <mxGeometry x="25" y="40" width="350" height="20" as="geometry"/>
        </mxCell>
        <mxCell id="edge_right_4_dev-app-vnet" edge="1" source="hub" target="right_spoke4" style="edgeStyle=orthogonalEdgeStyle;rounded=1;strokeColor=#0078D4;strokeWidth=2;endArrow=block;startArrow=block;" parent="1">
          <mxGeometry relative="1" as="geometry">
            <Array as="points">
              <mxPoint x="600" y="605"/>
              <mxPoint x="700" y="605"/>
            </Array>
          </mxGeometry>
        </mxCell>
        <mxCell id="nonpeered_spoke0" style="shape=rectangle;rounded=1;whiteSpace=wrap;html=1;strokeColor=gray;fontColor=gray;fillColor=#f5f5f5;verticalAlign=top" vertex="1" parent="1" value="Subscription: Sandbox&#10;Playground 192.168.0.0/24">
          <mxGeometry x="1200" y="200" width="400" height="70" as="geometry"/>
        </mxCell>
        <mxCell id="nonpeered_spoke0_image" style="shape=image;html=1;image=img/lib/azure2/networking/Virtual_Networks.svg;" vertex="1" parent="1">
          <mxGeometry x="1580" y="260" width="20" height="20" as="geometry"/>
        </mxCell>
        <mxCell id="nonpeered_spoke0_subnet_0" style="shape=rectangle;rounded=1;whiteSpace=wrap;html=1;strokeColor=#C8C6C4;fontColor=#323130;fillColor=#FAF9F8" vertex="1" parent="nonpeered_spoke0" value="MySubnet 192.168.0.0/24">
          <mxGeometry x="25" y="40" width="350" height="20" as="geometry"/>
        </mxCell>
        <mxCell id="nonpeered_spoke0_subnet_0_nsg" style="shape=image;html=1;image=img/lib/azure2/networking/Network_Security_Groups.svg;" vertex="1" parent="nonpeered_spoke0">
          <mxGeometry x="25" y="40" width="20" height="20" as="geometry"/>
        </mxCell>
        <mxCell id="nonpeered_spoke1" style="shape=rectangle;rounded=1;whiteSpace=wrap;html=1;strokeColor=gray;fontColor=gray;fillColor=#f5f5f5;verticalAlign=top" vertex="1" parent="1" value="Subscription: Sandbox&#10;aks-vnet 10.0.0.0/16">
          <mxGeometry x="1200" y="290" width="400" height="70" as="geometry"/>
        </mxCell>
        <mxCell id="nonpeered_spoke1_image" style="shape=image;html=1;image=img/lib/azure2/networking/Virtual_Networks.svg;" vertex="1" parent="1">
          <mxGeometry x="1580" y="350" width="20" height="20" as="geometry"/>
        </mxCell>
        <mxCell id="nonpeered_spoke1_subnet_0" style="shape=rectangle;rounded=1;whiteSpace=wrap;html=1;strokeColor=#C8C6C4;fontColor=#323130;fillColor=#FAF9F8" vertex="1" parent="nonpeered_spoke1" value="aks-subnet 10.0.1.0/24">
          <mxGeometry x="25" y="40" width="350" height="20" as="geometry"/>
        </mxCell>
        <mxCell id="nonpeered_spoke2" style="shape=rectangle;rounded=1;whiteSpace=wrap;html=1;strokeColor=gray;fontColor=gray;fillColor=#f5f5f5;verticalAlign=top" vertex="1" parent="1" value="Subscription: Sandbox&#10;Demo-VM-vnet 10.1.0.0/16">
          <mxGeometry x="1200" y="380" width="400" height="70" as="geometry"/>
        </mxCell>
        <mxCell id="nonpeered_spoke2_image" style="shape=image;html=1;image=img/lib/azure2/networking/Virtual_Networks.svg;" vertex="1" parent="1">
          <mxGeometry x="1580" y="440" width="20" height="20" as="geometry"/>
        </mxCell>
        <mxCell id="nonpeered_spoke2_subnet_0" style="shape=rectangle;rounded=1;whiteSpace=wrap;html=1;strokeColor=#C8C6C4;fontColor=#323130;fillColor=#FAF9F8" vertex="1" parent="nonpeered_spoke2" value="default 10.1.0.0/24">
          <mxGeometry x="25" y="40" width="350" height="20" as="geometry"/>
        </mxCell>
        <mxCell id="nonpeered_spoke3" style="shape=rectangle;rounded=1;whiteSpace=wrap;html=1;strokeColor=gray;fontColor=gray;fillColor=#f5f5f5;verticalAlign=top" vertex="1" parent="1" value="Subscription: Sandbox&#10;VMNET1 10.0.0.0/20">
          <mxGeometry x="1200" y="470" width="400" height="130" as="geometry"/>
        </mxCell>
        <mxCell id="nonpeered_spoke3_image" style="shape=image;html=1;image=img/lib/azure2/networking/Virtual_Networks.svg;" vertex="1" parent="1">
          <mxGeometry x="1580" y="590" width="20" height="20" as="geometry"/>
        </mxCell>
        <mxCell id="nonpeered_spoke3_subnet_0" style="shape=rectangle;rounded=1;whiteSpace=wrap;html=1;strokeColor=#C8C6C4;fontColor=#323130;fillColor=#FAF9F8" vertex="1" parent="nonpeered_spoke3" value="NIC1 10.0.0.0/24">
          <mxGeometry x="25" y="40" width="350" height="20" as="geometry"/>
        </mxCell>
        <mxCell id="nonpeered_spoke3_subnet_1" style="shape=rectangle;rounded=1;whiteSpace=wrap;html=1;strokeColor=#C8C6C4;fontColor=#323130;fillColor=#FAF9F8" vertex="1" parent="nonpeered_spoke3" value="NIC2 10.0.1.0/24">
          <mxGeometry x="25" y="70" width="350" height="20" as="geometry"/>
        </mxCell>
        <mxCell id="nonpeered_spoke3_subnet_2" style="shape=rectangle;rounded=1;whiteSpace=wrap;html=1;strokeColor=#C8C6C4;fontColor=#323130;fillColor=#FAF9F8" vertex="1" parent="nonpeered_spoke3" value="NIC3 10.0.2.0/24">
          <mxGeometry x="25" y="100" width="350" height="20" as="geometry"/>
        </mxCell>
        <mxCell id="nonpeered_spoke4" style="shape=rectangle;rounded=1;whiteSpace=wrap;html=1;strokeColor=gray;fontColor=gray;fillColor=#f5f5f5;verticalAlign=top" vertex="1" parent="1" value="Subscription: Sandbox&#10;lab-001-vnet 10.224.0.0/12">
          <mxGeometry x="1200" y="620" width="400" height="160" as="geometry"/>
        </mxCell>
        <mxCell id="nonpeered_spoke4_image" style="shape=image;html=1;image=img/lib/azure2/networking/Virtual_Networks.svg;" vertex="1" parent="1">
          <mxGeometry x="1580" y="770" width="20" height="20" as="geometry"/>
        </mxCell>
        <mxCell id="nonpeered_spoke4_subnet_0" style="shape=rectangle;rounded=1;whiteSpace=wrap;html=1;strokeColor=#C8C6C4;fontColor=#323130;fillColor=#FAF9F8" vertex="1" parent="nonpeered_spoke4" value="default 10.224.0.0/16">
          <mxGeometry x="25" y="40" width="350" height="20" as="geometry"/>
        </mxCell>
        <mxCell id="nonpeered_spoke4_subnet_1" style="shape=rectangle;rounded=1;whiteSpace=wrap;html=1;strokeColor=#C8C6C4;fontColor=#323130;fillColor=#FAF9F8" vertex="1" parent="nonpeered_spoke4" value="lab-aks-001 10.226.0.0/16">
          <mxGeometry x="25" y="70" width="350" height="20" as="geometry"/>
        </mxCell>
        <mxCell id="nonpeered_spoke4_subnet_2" style="shape=rectangle;rounded=1;whiteSpace=wrap;html=1;strokeColor=#C8C6C4;fontColor=#323130;fillColor=#FAF9F8" vertex="1" parent="nonpeered_spoke4" value="lab-vm-001 10.225.1.0/24">
          <mxGeometry x="25" y="100" width="350" height="20" as="geometry"/>
        </mxCell>
        <mxCell id="nonpeered_spoke4_subnet_3" style="shape=rectangle;rounded=1;whiteSpace=wrap;html=1;strokeColor=#C8C6C4;fontColor=#323130;fillColor=#FAF9F8" vertex="1" parent="nonpeered_spoke4" value="AzureBastionSubnet 10.225.0.0/26">
          <mxGeometry x="25" y="130" width="350" height="20" as="geometry"/>
        </mxCell>
      </root>
    </mxGraphModel>
  </diagram>
</mxfile>
